<mxfile host="Electron" agent="Mozilla/5.0 (Windows NT 10.0; Win64; x64) AppleWebKit/537.36 (KHTML, like Gecko) draw.io/27.0.9 Chrome/134.0.6998.205 Electron/35.4.0 Safari/537.36" version="27.0.9">
  <diagram name="Page-1" id="jWn_28nvG3pBKJPfMd9V">
    <mxGraphModel dx="786" dy="1664" grid="1" gridSize="10" guides="1" tooltips="1" connect="1" arrows="1" fold="1" page="1" pageScale="1" pageWidth="850" pageHeight="1100" math="0" shadow="0">
      <root>
        <mxCell id="0" />
        <mxCell id="1" parent="0" />
        <mxCell id="KoupqNIY6DpkNvFFMMTS-1" value="" style="whiteSpace=wrap;html=1;aspect=fixed;" vertex="1" parent="1">
          <mxGeometry x="100" y="-130" width="590" height="590" as="geometry" />
        </mxCell>
        <mxCell id="KoupqNIY6DpkNvFFMMTS-2" value="Actor" style="shape=umlActor;verticalLabelPosition=bottom;verticalAlign=top;html=1;outlineConnect=0;" vertex="1" parent="1">
          <mxGeometry x="130" y="170" width="30" height="50" as="geometry" />
        </mxCell>
        <mxCell id="KoupqNIY6DpkNvFFMMTS-30" value="" style="rounded=0;orthogonalLoop=1;jettySize=auto;html=1;" edge="1" parent="1" source="KoupqNIY6DpkNvFFMMTS-3" target="KoupqNIY6DpkNvFFMMTS-5">
          <mxGeometry relative="1" as="geometry" />
        </mxCell>
        <mxCell id="KoupqNIY6DpkNvFFMMTS-41" value="&lt;span style=&quot;color: rgba(0, 0, 0, 0); font-family: monospace; font-size: 0px; text-align: start; background-color: rgb(236, 236, 236);&quot;&gt;%3CmxGraphModel%3E%3Croot%3E%3CmxCell%20id%3D%220%22%2F%3E%3CmxCell%20id%3D%221%22%20parent%3D%220%22%2F%3E%3CmxCell%20id%3D%222%22%20value%3D%22include%22%20style%3D%22edgeLabel%3Bhtml%3D1%3Balign%3Dcenter%3BverticalAlign%3Dmiddle%3Bresizable%3D0%3Bpoints%3D%5B%5D%3B%22%20vertex%3D%221%22%20connectable%3D%220%22%20parent%3D%221%22%3E%3CmxGeometry%20x%3D%22180%22%20y%3D%22250%22%20as%3D%22geometry%22%2F%3E%3C%2FmxCell%3E%3C%2Froot%3E%3C%2FmxGraphModel%3E&lt;/span&gt;&lt;span style=&quot;color: rgba(0, 0, 0, 0); font-family: monospace; font-size: 0px; text-align: start; background-color: rgb(236, 236, 236);&quot;&gt;%3CmxGraphModel%3E%3Croot%3E%3CmxCell%20id%3D%220%22%2F%3E%3CmxCell%20id%3D%221%22%20parent%3D%220%22%2F%3E%3CmxCell%20id%3D%222%22%20value%3D%22include%22%20style%3D%22edgeLabel%3Bhtml%3D1%3Balign%3Dcenter%3BverticalAlign%3Dmiddle%3Bresizable%3D0%3Bpoints%3D%5B%5D%3B%22%20vertex%3D%221%22%20connectable%3D%220%22%20parent%3D%221%22%3E%3CmxGeometry%20x%3D%22180%22%20y%3D%22250%22%20as%3D%22geometry%22%2F%3E%3C%2FmxCell%3E%3C%2Froot%3E%3C%2FmxGraphModel%3Ei&lt;/span&gt;" style="edgeLabel;html=1;align=center;verticalAlign=middle;resizable=0;points=[];" vertex="1" connectable="0" parent="KoupqNIY6DpkNvFFMMTS-30">
          <mxGeometry x="-0.3097" y="7" relative="1" as="geometry">
            <mxPoint as="offset" />
          </mxGeometry>
        </mxCell>
        <mxCell id="KoupqNIY6DpkNvFFMMTS-42" value="&lt;span style=&quot;color: rgba(0, 0, 0, 0); font-family: monospace; font-size: 0px; text-align: start; background-color: rgb(236, 236, 236);&quot;&gt;%3CmxGraphModel%3E%3Croot%3E%3CmxCell%20id%3D%220%22%2F%3E%3CmxCell%20id%3D%221%22%20parent%3D%220%22%2F%3E%3CmxCell%20id%3D%222%22%20value%3D%22include%22%20style%3D%22edgeLabel%3Bhtml%3D1%3Balign%3Dcenter%3BverticalAlign%3Dmiddle%3Bresizable%3D0%3Bpoints%3D%5B%5D%3B%22%20vertex%3D%221%22%20connectable%3D%220%22%20parent%3D%221%22%3E%3CmxGeometry%20x%3D%22180%22%20y%3D%22250%22%20as%3D%22geometry%22%2F%3E%3C%2FmxCell%3E%3C%2Froot%3E%3C%2FmxGraphModel%3&lt;/span&gt;" style="edgeLabel;html=1;align=center;verticalAlign=middle;resizable=0;points=[];" vertex="1" connectable="0" parent="KoupqNIY6DpkNvFFMMTS-30">
          <mxGeometry x="-0.2718" y="6" relative="1" as="geometry">
            <mxPoint as="offset" />
          </mxGeometry>
        </mxCell>
        <mxCell id="KoupqNIY6DpkNvFFMMTS-43" value="include" style="edgeLabel;html=1;align=center;verticalAlign=middle;resizable=0;points=[];" vertex="1" connectable="0" parent="KoupqNIY6DpkNvFFMMTS-30">
          <mxGeometry x="-0.1146" y="5" relative="1" as="geometry">
            <mxPoint as="offset" />
          </mxGeometry>
        </mxCell>
        <mxCell id="KoupqNIY6DpkNvFFMMTS-31" value="" style="rounded=0;orthogonalLoop=1;jettySize=auto;html=1;entryX=0.094;entryY=0.653;entryDx=0;entryDy=0;entryPerimeter=0;" edge="1" parent="1" source="KoupqNIY6DpkNvFFMMTS-3" target="KoupqNIY6DpkNvFFMMTS-4">
          <mxGeometry relative="1" as="geometry" />
        </mxCell>
        <mxCell id="KoupqNIY6DpkNvFFMMTS-44" value="include" style="edgeLabel;html=1;align=center;verticalAlign=middle;resizable=0;points=[];" vertex="1" connectable="0" parent="KoupqNIY6DpkNvFFMMTS-31">
          <mxGeometry x="-0.3248" y="9" relative="1" as="geometry">
            <mxPoint as="offset" />
          </mxGeometry>
        </mxCell>
        <mxCell id="KoupqNIY6DpkNvFFMMTS-32" value="" style="rounded=0;orthogonalLoop=1;jettySize=auto;html=1;" edge="1" parent="1" source="KoupqNIY6DpkNvFFMMTS-3" target="KoupqNIY6DpkNvFFMMTS-7">
          <mxGeometry relative="1" as="geometry" />
        </mxCell>
        <mxCell id="KoupqNIY6DpkNvFFMMTS-45" value="include" style="edgeLabel;html=1;align=center;verticalAlign=middle;resizable=0;points=[];" vertex="1" connectable="0" parent="KoupqNIY6DpkNvFFMMTS-32">
          <mxGeometry x="-0.0541" y="7" relative="1" as="geometry">
            <mxPoint as="offset" />
          </mxGeometry>
        </mxCell>
        <mxCell id="KoupqNIY6DpkNvFFMMTS-33" value="" style="rounded=0;orthogonalLoop=1;jettySize=auto;html=1;" edge="1" parent="1" source="KoupqNIY6DpkNvFFMMTS-3" target="KoupqNIY6DpkNvFFMMTS-6">
          <mxGeometry relative="1" as="geometry" />
        </mxCell>
        <mxCell id="KoupqNIY6DpkNvFFMMTS-46" value="include" style="edgeLabel;html=1;align=center;verticalAlign=middle;resizable=0;points=[];" vertex="1" connectable="0" parent="KoupqNIY6DpkNvFFMMTS-33">
          <mxGeometry x="0.2824" y="6" relative="1" as="geometry">
            <mxPoint as="offset" />
          </mxGeometry>
        </mxCell>
        <mxCell id="KoupqNIY6DpkNvFFMMTS-3" value="travel assistance" style="ellipse;whiteSpace=wrap;html=1;" vertex="1" parent="1">
          <mxGeometry x="180" y="130" width="120" height="60" as="geometry" />
        </mxCell>
        <mxCell id="KoupqNIY6DpkNvFFMMTS-4" value="display available hotels" style="ellipse;whiteSpace=wrap;html=1;" vertex="1" parent="1">
          <mxGeometry x="410" y="60" width="120" height="50" as="geometry" />
        </mxCell>
        <mxCell id="KoupqNIY6DpkNvFFMMTS-5" value="display prices of hotels" style="ellipse;whiteSpace=wrap;html=1;" vertex="1" parent="1">
          <mxGeometry x="400" y="120" width="120" height="50" as="geometry" />
        </mxCell>
        <mxCell id="KoupqNIY6DpkNvFFMMTS-6" value="view" style="ellipse;whiteSpace=wrap;html=1;" vertex="1" parent="1">
          <mxGeometry x="400" y="200" width="120" height="50" as="geometry" />
        </mxCell>
        <mxCell id="KoupqNIY6DpkNvFFMMTS-7" value="disolay location" style="ellipse;whiteSpace=wrap;html=1;" vertex="1" parent="1">
          <mxGeometry x="270" y="20" width="120" height="50" as="geometry" />
        </mxCell>
        <mxCell id="KoupqNIY6DpkNvFFMMTS-25" value="" style="edgeStyle=orthogonalEdgeStyle;rounded=0;orthogonalLoop=1;jettySize=auto;html=1;" edge="1" parent="1" source="KoupqNIY6DpkNvFFMMTS-10" target="KoupqNIY6DpkNvFFMMTS-12">
          <mxGeometry relative="1" as="geometry" />
        </mxCell>
        <mxCell id="KoupqNIY6DpkNvFFMMTS-48" value="include" style="edgeLabel;html=1;align=center;verticalAlign=middle;resizable=0;points=[];" vertex="1" connectable="0" parent="KoupqNIY6DpkNvFFMMTS-25">
          <mxGeometry x="-0.2857" y="7" relative="1" as="geometry">
            <mxPoint as="offset" />
          </mxGeometry>
        </mxCell>
        <mxCell id="KoupqNIY6DpkNvFFMMTS-26" value="" style="rounded=0;orthogonalLoop=1;jettySize=auto;html=1;entryX=0.281;entryY=0.093;entryDx=0;entryDy=0;entryPerimeter=0;" edge="1" parent="1" target="KoupqNIY6DpkNvFFMMTS-11">
          <mxGeometry relative="1" as="geometry">
            <mxPoint x="331.36" y="270" as="sourcePoint" />
            <mxPoint x="400.0000000000001" y="361" as="targetPoint" />
          </mxGeometry>
        </mxCell>
        <mxCell id="KoupqNIY6DpkNvFFMMTS-49" value="include" style="edgeLabel;html=1;align=center;verticalAlign=middle;resizable=0;points=[];" vertex="1" connectable="0" parent="KoupqNIY6DpkNvFFMMTS-26">
          <mxGeometry x="-0.2133" y="6" relative="1" as="geometry">
            <mxPoint as="offset" />
          </mxGeometry>
        </mxCell>
        <mxCell id="KoupqNIY6DpkNvFFMMTS-28" value="" style="edgeStyle=orthogonalEdgeStyle;rounded=0;orthogonalLoop=1;jettySize=auto;html=1;" edge="1" parent="1" source="KoupqNIY6DpkNvFFMMTS-10" target="KoupqNIY6DpkNvFFMMTS-13">
          <mxGeometry relative="1" as="geometry" />
        </mxCell>
        <mxCell id="KoupqNIY6DpkNvFFMMTS-40" value="include" style="edgeLabel;html=1;align=center;verticalAlign=middle;resizable=0;points=[];" vertex="1" connectable="0" parent="KoupqNIY6DpkNvFFMMTS-28">
          <mxGeometry x="-0.7" y="3" relative="1" as="geometry">
            <mxPoint x="-42" y="-8" as="offset" />
          </mxGeometry>
        </mxCell>
        <mxCell id="KoupqNIY6DpkNvFFMMTS-10" value="enter budget" style="ellipse;whiteSpace=wrap;html=1;" vertex="1" parent="1">
          <mxGeometry x="240" y="230" width="120" height="50" as="geometry" />
        </mxCell>
        <mxCell id="KoupqNIY6DpkNvFFMMTS-38" value="" style="rounded=0;orthogonalLoop=1;jettySize=auto;html=1;" edge="1" parent="1" source="KoupqNIY6DpkNvFFMMTS-11" target="KoupqNIY6DpkNvFFMMTS-6">
          <mxGeometry relative="1" as="geometry" />
        </mxCell>
        <mxCell id="KoupqNIY6DpkNvFFMMTS-39" value="extend" style="edgeLabel;html=1;align=center;verticalAlign=middle;resizable=0;points=[];" vertex="1" connectable="0" parent="KoupqNIY6DpkNvFFMMTS-38">
          <mxGeometry x="0.3516" y="-5" relative="1" as="geometry">
            <mxPoint as="offset" />
          </mxGeometry>
        </mxCell>
        <mxCell id="KoupqNIY6DpkNvFFMMTS-11" value="make booking" style="ellipse;whiteSpace=wrap;html=1;" vertex="1" parent="1">
          <mxGeometry x="375" y="340" width="120" height="50" as="geometry" />
        </mxCell>
        <mxCell id="KoupqNIY6DpkNvFFMMTS-12" value="write review" style="ellipse;whiteSpace=wrap;html=1;" vertex="1" parent="1">
          <mxGeometry x="240" y="350" width="120" height="50" as="geometry" />
        </mxCell>
        <mxCell id="KoupqNIY6DpkNvFFMMTS-13" value="save hotel" style="ellipse;whiteSpace=wrap;html=1;" vertex="1" parent="1">
          <mxGeometry x="110" y="290" width="90" height="50" as="geometry" />
        </mxCell>
        <mxCell id="KoupqNIY6DpkNvFFMMTS-18" value="" style="endArrow=none;html=1;rounded=0;exitX=0.5;exitY=0.5;exitDx=0;exitDy=0;exitPerimeter=0;" edge="1" parent="1" source="KoupqNIY6DpkNvFFMMTS-2">
          <mxGeometry width="50" height="50" relative="1" as="geometry">
            <mxPoint x="150" y="230" as="sourcePoint" />
            <mxPoint x="200" y="180" as="targetPoint" />
          </mxGeometry>
        </mxCell>
        <mxCell id="KoupqNIY6DpkNvFFMMTS-23" value="" style="endArrow=none;html=1;rounded=0;entryX=0.728;entryY=0.889;entryDx=0;entryDy=0;entryPerimeter=0;" edge="1" parent="1" source="KoupqNIY6DpkNvFFMMTS-10" target="KoupqNIY6DpkNvFFMMTS-3">
          <mxGeometry width="50" height="50" relative="1" as="geometry">
            <mxPoint x="230" y="240" as="sourcePoint" />
            <mxPoint x="280" y="190" as="targetPoint" />
          </mxGeometry>
        </mxCell>
        <mxCell id="KoupqNIY6DpkNvFFMMTS-47" value="include" style="edgeLabel;html=1;align=center;verticalAlign=middle;resizable=0;points=[];" vertex="1" connectable="0" parent="KoupqNIY6DpkNvFFMMTS-23">
          <mxGeometry x="-0.3059" y="-5" relative="1" as="geometry">
            <mxPoint as="offset" />
          </mxGeometry>
        </mxCell>
        <mxCell id="KoupqNIY6DpkNvFFMMTS-36" value="Text" style="text;html=1;align=center;verticalAlign=middle;whiteSpace=wrap;rounded=0;" vertex="1" parent="1">
          <mxGeometry x="380" y="150" width="60" height="30" as="geometry" />
        </mxCell>
        <mxCell id="KoupqNIY6DpkNvFFMMTS-37" value="USE CASE DIAGRAM FOR TRAVEL ASSISTANCE&amp;nbsp;" style="text;html=1;align=center;verticalAlign=middle;whiteSpace=wrap;rounded=0;" vertex="1" parent="1">
          <mxGeometry x="140" y="-90" width="450" height="30" as="geometry" />
        </mxCell>
      </root>
    </mxGraphModel>
  </diagram>
</mxfile>
